<svg width="83" height="73" viewBox="0 0 83 73" fill="none" xmlns="http://www.w3.org/2000/svg">
<path fill-rule="evenodd" clip-rule="evenodd" d="M35 17.5218C35 17.5145 35 17.5073 35 17.5C35 12.9456 36.5614 8.75586 39.178 5.43688C35.9902 2.08759 31.4889 0 26.5 0C24.667 0 22.8998 0.281814 21.2394 0.804477C22.9457 2.52187 24 4.88782 24 7.5C24 12.7467 19.7467 17 14.5 17C12.508 17 10.6593 16.3869 9.13209 15.3392C9.0449 16.0472 9 16.7684 9 17.5C9 24.9372 13.6394 31.2909 20.182 33.8248C21.2812 25.8135 27.2464 19.3533 35 17.5218ZM35.1071 19.556C28.2109 21.3387 22.9635 27.2205 22.1191 34.4472C23.5192 34.808 24.9872 35 26.5 35C31.4889 35 35.9902 32.9124 39.178 29.5631C36.9603 26.7502 35.5006 23.3118 35.1071 19.556Z" fill="#FBC707"/>
<path fill-rule="evenodd" clip-rule="evenodd" d="M56.9967 36.8416C56.862 43.8752 52.5778 49.8928 46.4902 52.5481L40.5 42.5L34.3158 53.2193C27.1819 51.0098 22 44.36 22 36.5C22 28.3521 27.5683 21.5048 35.1071 19.5559C36.1343 29.359 44.4248 37 54.5 37C55.3459 37 56.1792 36.9461 56.9967 36.8416Z" fill="#FBC707"/>
<path fill-rule="evenodd" clip-rule="evenodd" d="M59.6634 0.774209L56.0001 4.46082L66.4609 14.8557L70.618 10.6722C71.5078 12.7701 72 15.0776 72 17.5C72 27.165 64.165 35 54.5 35C44.835 35 37 27.165 37 17.5C37 7.83502 44.835 0 54.5 0C56.2973 0 58.0313 0.270942 59.6634 0.774209Z" fill="#FBC707"/>
<path d="M3.05664 65V57.8633H0.507812V56.4102H7.33398V57.8633H4.79102V65H3.05664ZM7.88477 60.7578C7.88477 59.8828 8.01562 59.1484 8.27734 58.5547C8.47266 58.1172 8.73828 57.7246 9.07422 57.377C9.41406 57.0293 9.78516 56.7715 10.1875 56.6035C10.7227 56.377 11.3398 56.2637 12.0391 56.2637C13.3047 56.2637 14.3164 56.6562 15.0742 57.4414C15.8359 58.2266 16.2168 59.3184 16.2168 60.7168C16.2168 62.1035 15.8398 63.1895 15.0859 63.9746C14.332 64.7559 13.3242 65.1465 12.0625 65.1465C10.7852 65.1465 9.76953 64.7578 9.01562 63.9805C8.26172 63.1992 7.88477 62.125 7.88477 60.7578ZM9.67188 60.6992C9.67188 61.6719 9.89648 62.4102 10.3457 62.9141C10.7949 63.4141 11.3652 63.6641 12.0566 63.6641C12.748 63.6641 13.3145 63.416 13.7559 62.9199C14.2012 62.4199 14.4238 61.6719 14.4238 60.6758C14.4238 59.6914 14.207 58.957 13.7734 58.4727C13.3438 57.9883 12.7715 57.7461 12.0566 57.7461C11.3418 57.7461 10.7656 57.9922 10.3281 58.4844C9.89062 58.9727 9.67188 59.7109 9.67188 60.6992ZM17.5996 65V56.4102H19.334V60.2246L22.8379 56.4102H25.1699L21.9355 59.7559L25.3457 65H23.1016L20.7402 60.9688L19.334 62.4043V65H17.5996ZM26.248 65V56.4102H32.6172V57.8633H27.9824V59.7676H32.2949V61.2148H27.9824V63.5527H32.7812V65H26.248ZM34.2695 65V56.4102H35.957L39.4727 62.1465V56.4102H41.084V65H39.3438L35.8809 59.3984V65H34.2695ZM45.7891 65V63.2715H42.2734V61.8301L46 56.375H47.3828V61.8242H48.4492V63.2715H47.3828V65H45.7891ZM45.7891 61.8242V58.8887L43.8145 61.8242H45.7891ZM49.6094 65V56.4102H51.3438V59.791H54.7422V56.4102H56.4766V65H54.7422V61.2441H51.3438V65H49.6094ZM57.9238 60.7578C57.9238 59.8828 58.0547 59.1484 58.3164 58.5547C58.5117 58.1172 58.7773 57.7246 59.1133 57.377C59.4531 57.0293 59.8242 56.7715 60.2266 56.6035C60.7617 56.377 61.3789 56.2637 62.0781 56.2637C63.3438 56.2637 64.3555 56.6562 65.1133 57.4414C65.875 58.2266 66.2559 59.3184 66.2559 60.7168C66.2559 62.1035 65.8789 63.1895 65.125 63.9746C64.3711 64.7559 63.3633 65.1465 62.1016 65.1465C60.8242 65.1465 59.8086 64.7578 59.0547 63.9805C58.3008 63.1992 57.9238 62.125 57.9238 60.7578ZM59.7109 60.6992C59.7109 61.6719 59.9355 62.4102 60.3848 62.9141C60.834 63.4141 61.4043 63.6641 62.0957 63.6641C62.7871 63.6641 63.3535 63.416 63.7949 62.9199C64.2402 62.4199 64.4629 61.6719 64.4629 60.6758C64.4629 59.6914 64.2461 58.957 63.8125 58.4727C63.3828 57.9883 62.8105 57.7461 62.0957 57.7461C61.3809 57.7461 60.8047 57.9922 60.3672 58.4844C59.9297 58.9727 59.7109 59.7109 59.7109 60.6992ZM67.6152 65V56.4102H70.3984C71.4531 56.4102 72.1406 56.4531 72.4609 56.5391C72.9531 56.668 73.3652 56.9492 73.6973 57.3828C74.0293 57.8125 74.1953 58.3691 74.1953 59.0527C74.1953 59.5801 74.0996 60.0234 73.9082 60.3828C73.7168 60.7422 73.4727 61.0254 73.1758 61.2324C72.8828 61.4355 72.584 61.5703 72.2793 61.6367C71.8652 61.7188 71.2656 61.7598 70.4805 61.7598H69.3496V65H67.6152ZM69.3496 57.8633V60.3008H70.2988C70.9824 60.3008 71.4395 60.2559 71.6699 60.166C71.9004 60.0762 72.0801 59.9355 72.209 59.7441C72.3418 59.5527 72.4082 59.3301 72.4082 59.0762C72.4082 58.7637 72.3164 58.5059 72.1328 58.3027C71.9492 58.0996 71.7168 57.9727 71.4355 57.9219C71.2285 57.8828 70.8125 57.8633 70.1875 57.8633H69.3496ZM75.6191 65V56.4102H81.9883V57.8633H77.3535V59.7676H81.666V61.2148H77.3535V63.5527H82.1523V65H75.6191Z" fill="white"/>
</svg>
