<svg width="65" height="65" viewBox="0 0 65 65" fill="none" xmlns="http://www.w3.org/2000/svg">
<path d="M0 -0.000244345H64.83V64.83H0V-0.000244345Z" fill="#FBC707"/>
<path fill-rule="evenodd" clip-rule="evenodd" d="M54.3291 53.0747L55.3512 54.8084H56.543L55.4904 53.0747H54.3291ZM52.5659 53.0747V54.8084H53.5723V53.5665L54.0413 53.0747H52.5659ZM46.6209 53.0747V54.8084H47.6812V53.2961H48.346L49.1845 54.8084H50.3525L49.3761 53.1164C49.4095 53.1036 49.4475 53.0897 49.4877 53.0734L46.6209 53.0747ZM41.0577 53.0747V54.8084H44.3699V53.9743H42.1119V53.0747H41.0577ZM36.5362 53.0747C36.5638 53.1703 36.5961 53.2798 36.634 53.4103C36.772 53.8724 36.8975 54.3404 37.0293 54.8084H38.1193L38.5584 53.0747H37.6193C37.5907 53.2467 37.5605 53.4434 37.5208 53.7103C37.4773 53.4402 37.4434 53.2446 37.4098 53.0747H36.5362ZM33.973 53.0747L34.4121 54.8084H35.5022L35.9095 53.3803C35.9438 53.2632 35.9738 53.1621 36.0001 53.0734L35.1484 53.0747C35.1118 53.2495 35.0733 53.4503 35.0228 53.7224C34.9883 53.4711 34.9597 53.2721 34.9272 53.0743L33.973 53.0747ZM29.3894 53.0747C29.5553 53.1033 29.7231 53.1246 29.891 53.1463C30.2025 53.1884 30.6277 53.2424 30.6277 53.5786C30.6277 53.8724 30.2684 54.0703 29.8489 54.0703C29.6035 54.0703 29.316 54.0164 29.0345 53.8661C28.825 53.7522 28.7351 53.6561 28.6272 53.5363L27.8246 54.0463C28.0883 54.3523 28.5613 54.9044 29.7533 54.9044C30.3461 54.9044 30.957 54.7784 31.3406 54.3342C31.562 54.0762 31.6759 53.7403 31.6759 53.4342C31.6759 53.3064 31.6582 53.1857 31.6237 53.074L29.3894 53.0747ZM22.9803 53.0747V54.8084H24.0342V53.0983H26.0528V53.0747H22.9803ZM18.2916 53.0747V54.8084H20.9987V53.9143H19.3457V53.0747H18.2916ZM14.711 53.0747V54.8084H15.7652V53.0747H14.711ZM11.1363 53.0747V54.8084H12.1965V53.0747H11.1363ZM8.52493 53.0747V54.8084H9.59104V53.0747H8.52493Z" fill="#231F20"/>
<path fill-rule="evenodd" clip-rule="evenodd" d="M48.5795 51.3645C48.8012 51.3702 49.1902 51.3883 49.1902 51.9285C49.1902 52.4925 48.7051 52.5043 48.5555 52.5106H47.6812V51.3645H48.5795ZM54.0414 53.0748L54.2191 52.8884L54.3291 53.0748H55.4905L54.9258 52.1444L56.4231 50.5723H55.1536L53.5723 52.3004V50.5723H52.566V53.0748H54.0414ZM49.4878 53.0748C49.7919 52.9506 50.2446 52.6986 50.2446 51.9463C50.2446 51.5624 50.1069 51.2263 49.909 51.0045C49.52 50.5844 48.9686 50.5785 48.5256 50.5723H46.6209V53.0748H49.4878ZM42.1119 53.0748V52.9664H44.0465V52.1624H42.1119V51.3945H44.1844V50.5723H41.0578V53.0748H42.1119ZM38.5584 53.0748L39.1913 50.5723H38.1433C38.0537 50.9983 37.9576 51.4304 37.8677 51.8624C37.7373 52.452 37.6815 52.7061 37.6193 53.075L38.5584 53.0748ZM36.0001 53.0748C36.1542 52.5483 36.1766 52.4529 36.2686 52.0065C36.3736 52.5012 36.3994 52.6046 36.5362 53.0757L37.4098 53.0748C37.3408 52.7279 37.2701 52.4882 37.1132 51.9406C36.9753 51.4843 36.8497 51.0283 36.7237 50.5723H35.7897L35.4423 51.8805C35.2922 52.4483 35.2247 52.7063 35.1484 53.0739L36.0001 53.0748ZM34.9272 53.0748C34.8405 52.549 34.7248 52.0324 34.3943 50.5723H33.34L33.973 53.0748H34.9272ZM31.6237 53.0748C31.5279 52.7669 31.301 52.5284 30.9451 52.3964C30.7054 52.3123 30.1007 52.1982 29.6513 52.1444C29.4718 52.1204 29.1125 52.0724 29.1125 51.7485C29.1125 51.5443 29.322 51.3043 29.7414 51.3043C30.0109 51.3043 30.2803 51.4065 30.4301 51.4905C30.5977 51.5866 30.7176 51.7005 30.8493 51.8324L31.6281 51.2744C31.2626 50.9444 30.7356 50.4704 29.7593 50.4704C29.0286 50.4704 28.0584 50.7943 28.0584 51.8864C28.0584 52.7983 28.9387 52.9845 29.1962 53.0384C29.2602 53.0519 29.3247 53.0641 29.3895 53.075L31.6237 53.0748ZM26.0528 53.0748V52.2763H24.0342V51.3883H26.2264V50.5723H22.9803V53.0748H26.0528ZM19.3457 53.0748V50.5666H18.2916V53.0748H19.3457ZM15.7652 53.0748V50.5723H14.711V53.0748H15.7652ZM9.59104 53.0748V53.0023H11.1363V53.0748H12.1965V50.5723H11.1363V52.1026H9.59104V50.5723H8.52493V53.0748H9.59104Z" fill="#231F20"/>
<path d="M16.8561 11.0354L25.7218 11.0391L25.7179 21.9174L39.3097 21.8822V16.1174L39.3168 16.1244L39.3097 11.0425C39.3097 11.0425 47.897 11.0707 47.9675 11.0213H47.9743V42.2103H47.9675C47.9675 41.8371 47.9533 42.2103 47.9533 42.2103H39.169C39.164 42.1891 39.1663 29.5666 39.1663 29.5666L38.3523 29.5826C38.3315 30.0611 38.0849 30.4977 37.6627 30.7298C37.4375 30.8426 37.1909 30.8989 36.9448 30.8707C36.8952 31.2719 36.6562 31.6662 36.2971 31.8704C36.0787 31.9829 35.8255 32.0323 35.565 32.025C35.5159 32.0884 35.5298 32.2011 35.4948 32.2855C35.3608 32.708 34.9388 33.1018 34.4814 33.1654L34.1575 33.1793C34.1079 33.271 34.1221 33.3906 34.0729 33.4819C33.9252 33.9256 33.4744 34.2563 33.0243 34.3126C32.109 34.4606 31.7289 33.5455 31.2152 33.0174L31.1729 32.9753C30.8138 33.1864 30.293 33.2006 29.9271 32.9964C29.5751 32.8063 29.3217 32.4474 29.2725 32.0463C28.7444 32.0673 28.2376 31.7574 28.0407 31.3142C27.9703 31.1733 27.9421 31.0256 27.9211 30.8636C27.7098 30.8497 27.4845 30.8355 27.2876 30.758C26.8228 30.5752 26.5484 30.1105 26.5063 29.6179H25.6123V42.2103H16.8701L16.8561 11.0354Z" fill="#231F20"/>
<path d="M40.0136 41.4314C39.9999 41.4458 40.0136 41.4149 40.0136 41.4289H39.9926L39.9995 34.1156H39.9926L40.0276 28.7732H40.0418V28.7519L38.071 28.738C36.9167 27.3726 35.8678 26.028 34.7204 24.6624L34.6639 24.6414L32.4752 24.6484L31.2573 26.1126C31.1377 26.1899 30.9476 26.2393 30.8069 26.1687C30.6237 26.1126 30.5112 25.9224 30.4902 25.7465C30.4831 25.6127 30.5535 25.5002 30.6237 25.4087L32.1442 23.5504L32.8763 22.6635C33.0524 22.6353 33.2704 22.6493 33.4673 22.6493V22.6564L40.0928 22.6301C40.0928 22.6301 40.091 22.5791 40.1051 22.5862H40.098C40.098 22.5862 40.1102 11.7991 40.1102 11.808L47.2091 11.8341V41.4094L40.0136 41.4314Z" fill="white"/>
<path d="M17.6444 41.4218L17.6724 11.7394L24.8808 11.7119L24.8943 22.6211V22.6353L31.7993 22.6705L29.9833 24.8668C29.7087 25.2325 29.5822 25.7817 29.8004 26.2181C30.0115 26.6897 30.5325 26.9851 31.0462 26.9431C31.9331 26.8939 32.2919 25.9365 32.8552 25.4087H34.2838C35.2411 26.5277 36.1702 27.6752 37.149 28.8647C37.3178 29.1602 37.7682 29.4982 37.4585 29.8783C37.3389 30.0329 37.1346 30.1034 36.9377 30.0471C36.8108 30.0121 36.7193 29.9065 36.642 29.8289C36.0295 29.111 34.826 27.7033 34.826 27.7033L34.2771 28.1539V28.2028C34.8892 28.907 35.4735 29.6812 36.0647 30.4272C36.1635 30.6033 36.1702 30.8497 36.0647 31.0255C35.9732 31.1451 35.8255 31.2156 35.6709 31.2298C35.4033 31.2298 35.2482 30.9761 35.0865 30.8003L33.4744 28.7942C33.2349 28.9491 33.0732 29.1179 32.8411 29.294C32.9115 29.4349 34.2138 30.9693 34.7135 31.6872C34.7556 31.7929 34.7979 31.9406 34.7346 32.0531C34.6712 32.194 34.5587 32.3207 34.4107 32.3628C34.1994 32.4193 34.0095 32.3065 33.8689 32.173C33.5169 31.7011 33.1578 31.3 32.8056 30.8426C32.8482 30.3849 32.7073 29.9556 32.3834 29.6672C32.1231 29.4488 31.8135 29.3363 31.4686 29.3502C31.4192 28.9351 31.1518 28.5761 30.8069 28.3789C30.5746 28.2874 30.3211 28.2101 30.0538 28.2522C30.0044 27.8019 29.737 27.3934 29.3146 27.2107C28.843 27.0345 28.2307 27.0908 27.8788 27.4851C27.4986 27.9144 27.1748 28.3647 26.8018 28.7871L26.7384 28.8153L24.8801 28.8224L24.8591 41.4007C24.8591 41.4007 17.6344 41.3461 17.6444 41.4218Z" fill="white"/>
<path d="M32.5033 33.3413L31.7573 32.4262L31.7783 32.3699L32.3766 31.652C32.6792 32.0111 33.0662 32.4543 33.3267 32.8486C33.4044 33.0174 33.3482 33.2217 33.2423 33.3486C33.165 33.4538 33.038 33.4963 32.9184 33.5174C32.7494 33.5245 32.609 33.4469 32.5033 33.3413Z" fill="white"/>
<path d="M30.1382 32.1377C29.8285 31.659 30.4479 31.3423 30.6379 30.9903L31.2291 30.2795C31.3629 30.1459 31.5669 30.1386 31.7431 30.1949C31.8908 30.2584 31.9894 30.4133 32.0175 30.561C32.0598 30.6948 31.9965 30.8284 31.9121 30.9272L30.8632 32.2011C30.7507 32.3278 30.5888 32.3417 30.4268 32.3207C30.3141 32.2997 30.1945 32.2361 30.1382 32.1377Z" fill="white"/>
<path d="M28.8501 31.1031C28.7305 30.9835 28.7024 30.8215 28.7163 30.6596L28.7655 30.5329L29.9058 29.1534C30.0186 29.0758 30.1522 29.0125 30.3001 29.0408C30.4268 29.069 30.5606 29.1392 30.6238 29.2659C30.8843 29.7164 30.3353 30.0122 30.1522 30.3497C29.9129 30.6105 29.7229 30.913 29.4555 31.1523C29.2865 31.2861 29.0049 31.2298 28.8501 31.1031Z" fill="white"/>
<path d="M27.3297 29.7656C27.1538 29.3574 27.6183 29.1321 27.7731 28.8295C28.0336 28.5267 28.2589 28.1747 28.5896 27.9284C28.7586 27.8511 28.9839 27.8721 29.1177 27.9988C29.2442 28.1045 29.2936 28.2946 29.2584 28.4636L29.2232 28.5621L28.1603 29.8784C28.0618 29.9699 27.9492 30.0472 27.8154 30.0543C27.6112 30.0611 27.4072 29.9557 27.3297 29.7656Z" fill="white"/>
</svg>
